# Blender v2.91.0 OBJ File: ''
# www.blender.org
mtllib untitled.mtl
o Cube
v 1.953200 4.827755 -4.351063
v 1.953200 4.802528 -4.351063
v 1.953200 4.827755 -2.351063
v 1.953200 4.802528 -2.351063
v -0.046800 4.827755 -4.351063
v -0.046800 4.802528 -4.351063
v -0.046800 4.827755 -2.351063
v -0.046800 4.802528 -2.351063
v 1.553200 4.860688 -2.351063
v 1.153200 4.860688 -2.351063
v 0.753200 4.860688 -2.351063
v 0.353200 4.860688 -2.351063
v 1.953200 4.860688 -3.951063
v 1.953200 4.860688 -3.551063
v 1.953200 4.860688 -3.151063
v 1.953200 4.860688 -2.751063
v -0.046800 4.860688 -2.751063
v -0.046800 4.860688 -3.151063
v -0.046800 4.860688 -3.551063
v -0.046800 4.860688 -3.951063
v 0.353200 4.860688 -4.351063
v 0.753200 4.860688 -4.351063
v 1.153200 4.860688 -4.351063
v 1.553200 4.860688 -4.351063
v 1.553200 4.907819 -3.951063
v 1.553200 4.907819 -3.551063
v 1.553200 4.907819 -3.151063
v 1.553200 4.907819 -2.751063
v 1.153200 4.907819 -3.951063
v 1.153200 4.907819 -3.551063
v 1.153200 4.907819 -3.151063
v 1.153200 4.907819 -2.751063
v 0.753200 4.907819 -3.951063
v 0.753200 4.907819 -3.551063
v 0.753200 4.907819 -3.151063
v 0.753200 4.907819 -2.751063
v 0.353200 4.907819 -3.951063
v 0.353200 4.907819 -3.551063
v 0.353200 4.907819 -3.151063
v 0.353200 4.907819 -2.751063
vt 0.799733 0.793421
vt 0.998242 0.793421
vt 0.998242 0.991930
vt 0.799733 0.991930
vt 0.375000 0.750000
vt 0.625000 0.750000
vt 0.625000 0.800000
vt 0.625000 0.850000
vt 0.625000 0.900000
vt 0.625000 0.950000
vt 0.625000 1.000000
vt 0.375000 1.000000
vt 0.375000 0.000000
vt 0.625000 0.000000
vt 0.625000 0.050000
vt 0.625000 0.100000
vt 0.625000 0.150000
vt 0.625000 0.200000
vt 0.625000 0.250000
vt 0.375000 0.250000
vt 0.125000 0.500000
vt 0.375000 0.500000
vt 0.125000 0.750000
vt 0.625000 0.500000
vt 0.625000 0.550000
vt 0.625000 0.600000
vt 0.625000 0.650000
vt 0.625000 0.700000
vt 0.625000 0.300000
vt 0.625000 0.350000
vt 0.625000 0.400000
vt 0.625000 0.450000
vt 0.005695 0.793421
vt 0.204204 0.793421
vt 0.204204 0.991930
vt 0.005695 0.991930
vt 0.402714 0.793421
vt 0.402714 0.991930
vt 0.601223 0.793421
vt 0.601223 0.991930
vt 0.005695 -0.000618
vt 0.204204 -0.000618
vt 0.204204 0.197892
vt 0.005695 0.197892
vt 0.204204 0.396402
vt 0.005695 0.396401
vt 0.204204 0.594911
vt 0.005695 0.594911
vt 0.402714 -0.000618
vt 0.402714 0.197892
vt 0.402714 0.396402
vt 0.402714 0.594911
vt 0.601223 -0.000618
vt 0.601223 0.197892
vt 0.601223 0.396401
vt 0.601223 0.594911
vt 0.799733 -0.000618
vt 0.799733 0.197892
vt 0.799733 0.396401
vt 0.799733 0.594911
vt 0.998242 -0.000618
vt 0.998242 0.197892
vt 0.998242 0.396401
vt 0.998242 0.594911
vn -0.0991 0.9901 0.0991
vn 0.0000 0.0000 1.0000
vn -1.0000 0.0000 0.0000
vn 0.0000 -1.0000 0.0000
vn 1.0000 0.0000 0.0000
vn 0.0000 0.0000 -1.0000
vn 0.0991 0.9901 0.0991
vn 0.0000 0.9931 0.1170
vn 0.0991 0.9901 -0.0991
vn 0.1170 0.9931 0.0000
vn 0.0000 0.9931 -0.1170
vn 0.0000 1.0000 0.0000
vn -0.0991 0.9901 -0.0991
vn -0.1170 0.9931 0.0000
usemtl Material.002
s off
f 40/1/1 17/2/1 7/3/1 12/4/1
f 4/5/2 3/6/2 9/7/2 10/8/2 11/9/2 12/10/2 7/11/2 8/12/2
f 8/13/3 7/14/3 17/15/3 18/16/3 19/17/3 20/18/3 5/19/3 6/20/3
f 6/21/4 2/22/4 4/5/4 8/23/4
f 2/22/5 1/24/5 13/25/5 14/26/5 15/27/5 16/28/5 3/6/5 4/5/5
f 6/20/6 5/19/6 21/29/6 22/30/6 23/31/6 24/32/6 1/24/6 2/22/6
f 16/33/7 28/34/7 9/35/7 3/36/7
f 28/34/8 32/37/8 10/38/8 9/35/8
f 32/37/8 36/39/8 11/40/8 10/38/8
f 36/39/8 40/1/8 12/4/8 11/40/8
f 1/41/9 24/42/9 25/43/9 13/44/9
f 13/44/10 25/43/10 26/45/10 14/46/10
f 14/46/10 26/45/10 27/47/10 15/48/10
f 15/48/10 27/47/10 28/34/10 16/33/10
f 24/42/11 23/49/11 29/50/11 25/43/11
f 25/43/12 29/50/12 30/51/12 26/45/12
f 26/45/12 30/51/12 31/52/12 27/47/12
f 27/47/12 31/52/12 32/37/12 28/34/12
f 23/49/11 22/53/11 33/54/11 29/50/11
f 29/50/12 33/54/12 34/55/12 30/51/12
f 30/51/12 34/55/12 35/56/12 31/52/12
f 31/52/12 35/56/12 36/39/12 32/37/12
f 22/53/11 21/57/11 37/58/11 33/54/11
f 33/54/12 37/58/12 38/59/12 34/55/12
f 34/55/12 38/59/12 39/60/12 35/56/12
f 35/56/12 39/60/12 40/1/12 36/39/12
f 21/57/13 5/61/13 20/62/13 37/58/13
f 37/58/14 20/62/14 19/63/14 38/59/14
f 38/59/14 19/63/14 18/64/14 39/60/14
f 39/60/14 18/64/14 17/2/14 40/1/14
